<?xml version="1.0" encoding="utf-8"?>
<!-- Generator: Adobe Illustrator 25.4.1, SVG Export Plug-In . SVG Version: 6.00 Build 0)  -->
<svg version="1.1" id="Layer_1" xmlns="http://www.w3.org/2000/svg" xmlns:xlink="http://www.w3.org/1999/xlink" x="0px" y="0px"
	 viewBox="0 0 576 576" style="enable-background:new 0 0 576 576;" xml:space="preserve">
<style type="text/css">
	.st0{display:none;}
	.st1{display:inline;fill:#0D273F;}
	.st2{display:inline;fill:#507ABD;}
	.st3{display:inline;fill:#FFFFFF;stroke:#000000;stroke-width:0.5;stroke-miterlimit:10;}
	.st4{fill:url(#SVGID_1_);}
	.st5{fill:url(#SVGID_00000128484241514729106600000017172458580575446412_);}
	.st6{fill:url(#SVGID_00000158736909743674054450000004264822089239813525_);}
	.st7{display:none;fill:#0D273F;}
	.st8{font-family:'Nord-Bold';}
	.st9{font-size:15px;}
	.st10{font-size:31.0141px;}
	.st11{letter-spacing:6;}
	.st12{font-family:'EBGaramondSC12-Regular';}
	.st13{font-size:23.0718px;}
	.st14{letter-spacing:8;}
</style>
<g class="st0">
	<rect x="29.27" y="57.05" class="st1" width="27.22" height="27.22"/>
	<rect x="29.27" y="98.19" class="st2" width="27.22" height="27.22"/>
	<rect x="29.27" y="139.33" class="st3" width="27.22" height="27.22"/>
</g>
<g>
	<linearGradient id="SVGID_1_" gradientUnits="userSpaceOnUse" x1="187.6264" y1="345.9094" x2="187.6264" y2="202.3596">
		<stop  offset="0" style="stop-color:#0D273F"/>
		<stop  offset="0.0974" style="stop-color:#19324C"/>
		<stop  offset="0.2949" style="stop-color:#324F76"/>
		<stop  offset="0.5242" style="stop-color:#507ABD"/>
		<stop  offset="0.6338" style="stop-color:#416294"/>
		<stop  offset="0.8836" style="stop-color:#1E3754"/>
		<stop  offset="1" style="stop-color:#0D273F"/>
	</linearGradient>
	<path class="st4" d="M211.41,225.96v143.55c-28.93-22.02-47.57-56.81-47.57-95.98v-47.57H211.41z"/>
	
		<linearGradient id="SVGID_00000092426045819748684160000014682995260552303241_" gradientUnits="userSpaceOnUse" x1="187.6264" y1="240.5799" x2="187.6264" y2="158.504">
		<stop  offset="0" style="stop-color:#0D273F"/>
		<stop  offset="0.0974" style="stop-color:#19324C"/>
		<stop  offset="0.2949" style="stop-color:#324F76"/>
		<stop  offset="0.5242" style="stop-color:#507ABD"/>
		<stop  offset="0.5412" style="stop-color:#4D75B3"/>
		<stop  offset="0.7604" style="stop-color:#2D496E"/>
		<stop  offset="0.9191" style="stop-color:#17304A"/>
		<stop  offset="1" style="stop-color:#0D273F"/>
	</linearGradient>
	
		<rect x="163.84" y="152.94" style="fill:url(#SVGID_00000092426045819748684160000014682995260552303241_);" width="47.57" height="47.57"/>
	
		<linearGradient id="SVGID_00000053539858770906726200000011178922721159784612_" gradientUnits="userSpaceOnUse" x1="320.1402" y1="394.1226" x2="320.1402" y2="152.9368">
		<stop  offset="0" style="stop-color:#0D273F"/>
		<stop  offset="0.0974" style="stop-color:#19324C"/>
		<stop  offset="0.2949" style="stop-color:#324F76"/>
		<stop  offset="0.5242" style="stop-color:#507ABD"/>
		<stop  offset="0.6338" style="stop-color:#416294"/>
		<stop  offset="0.8836" style="stop-color:#1E3754"/>
		<stop  offset="1" style="stop-color:#0D273F"/>
	</linearGradient>
	<path style="fill:url(#SVGID_00000053539858770906726200000011178922721159784612_);" d="M284.49,152.94
		c7.58,0,14.99,0.72,22.13,2.05c29.98,5.53,56.09,22.24,73.85,45.53c15.43,20.3,24.62,45.58,24.62,73.02
		c0,59.02-42.43,108.2-98.47,118.6v-48.96c29.48-9.4,50.89-37.01,50.89-69.65s-21.41-60.24-50.89-69.65
		c-6.97-2.16-14.44-3.37-22.13-3.37h-1.66v0.06v193.56c-16.98-0.17-33.08-3.93-47.63-10.46V152.94H284.49"/>
</g>
<text transform="matrix(1 0 0 1 211.7577 220.8481)" class="st7 st8 st9">N </text>
<text transform="matrix(1 0 0 1 302.1761 219.5617)" class="st7 st8 st9">N </text>
<text transform="matrix(1 0 0 1 159.793 295.4512)" class="st7 st8 st10 st11">INFINITY </text>
<text transform="matrix(1 0 0 1 192.2217 316.8613)" class="st7 st12 st13 st14">designs</text>
</svg>
